Coordinates
version=1
nRows=8
nColumns=40
inDegrees=yes

Units are S.I. units (second, meters, Newtons, ...)
Angles are in degrees.

endheader
time	pelvis_tilt	pelvis_list	pelvis_rotation	pelvis_tx	pelvis_ty	pelvis_tz	hip_flexion_r	hip_adduction_r	hip_rotation_r	knee_angle_r	knee_angle_r_beta	ankle_angle_r	subtalar_angle_r	mtp_angle_r	hip_flexion_l	hip_adduction_l	hip_rotation_l	knee_angle_l	knee_angle_l_beta	ankle_angle_l	subtalar_angle_l	mtp_angle_l	lumbar_extension	lumbar_bending	lumbar_rotation	arm_flex_r	arm_add_r	arm_rot_r	elbow_flex_r	pro_sup_r	wrist_flex_r	wrist_dev_r	arm_flex_l	arm_add_l	arm_rot_l	elbow_flex_l	pro_sup_l	wrist_flex_l	wrist_dev_l
     18.65500000	     -3.57628729	     -3.94867987	      2.82424270	      1.13704328	      0.91421447	      0.42187023	     -1.80896261	     -3.04102600	    -14.98601561	     31.70742726	     31.70742726	     12.80704808	     -0.18608294	    -18.74323180	     29.66415575	     -4.05896087	     -4.05147180	     29.78893137	     29.78893137	      7.81332479	    -17.21042479	     10.25196721	     -6.41803297	      5.40352479	      4.23021738	     28.18194489	    -15.33815207	    -11.48916354	     93.85356888	     44.65977518	      0.00000000	      0.00000000	    -14.20043021	     -5.46552527	      5.91036178	     20.54923912	     45.58287903	      0.00000000	      0.00000000
     18.66657143	     -3.58253596	     -3.75360700	      2.76377782	      1.13701162	      0.91587976	      0.41846939	     -0.08854150	     -4.22127981	    -14.56897939	     35.73923757	     35.73923757	     10.73010664	     -1.13552214	    -19.51607565	     28.76472349	     -3.74573718	     -4.45654150	     29.46869625	     29.46869625	      8.48909728	    -16.82312852	      9.80948088	     -6.46922477	      5.38104005	      3.96249414	     26.47584229	    -15.23320344	    -11.33063215	     93.16363137	     44.67555699	      0.00000000	      0.00000000	    -13.08667542	     -5.37166762	      5.77282086	     21.14074473	     45.63670152	      0.00000000	      0.00000000
     18.67814286	     -3.55613366	     -3.57264198	      2.70022520	      1.13679857	      0.91753047	      0.41524824	      1.73059004	     -5.33707708	    -14.03930540	     39.80548985	     39.80548985	      8.41928390	     -2.29792427	    -19.95235400	     27.79493481	     -3.47067010	     -4.92481706	     29.05791690	     29.05791690	      9.07828777	    -16.35135335	      9.31631553	     -6.57350782	      5.35188266	      3.74012780	     24.65440803	    -15.15323959	    -11.18190701	     92.28455378	     44.69683420	      0.00000000	      0.00000000	    -11.85422898	     -5.34724482	      5.57431549	     21.86889679	     45.70241062	      0.00000000	      0.00000000
     18.68971429	     -3.48741870	     -3.41413150	      2.67636877	      1.13634653	      0.91916684	      0.41215679	      3.57690215	     -6.34963555	    -13.44122622	     43.77043918	     43.77043918	      6.04899057	     -3.51114798	    -19.88059727	     26.79611434	     -3.21460994	     -5.36041674	     28.63095814	     28.63095814	      9.57780825	    -15.78794907	      8.81951987	     -6.79310413	      5.32903581	      3.51477613	     22.79366251	    -15.01245951	    -11.01483837	     91.22292141	     44.72204663	      0.00000000	      0.00000000	    -10.49441121	     -5.36192828	      5.35725219	     22.68140577	     45.77110185	      0.00000000	      0.00000000
     18.70128571	     -3.53379218	     -3.21850031	      2.56908962	      1.13570216	      0.92051331	      0.40936999	      5.68998354	     -7.28483609	    -12.62305571	     47.71292453	     47.71292453	      3.83111413	     -5.02694235	    -19.24815291	     25.86729367	     -2.96818637	     -5.96368556	     28.10024056	     28.10024056	     10.07740668	    -15.15172862	      8.20739393	     -6.84343432	      5.26573495	      3.41592461	     20.82613058	    -14.99522937	    -10.90573707	     89.77889128	     44.76146989	      0.00000000	      0.00000000	     -9.06604125	     -5.48928390	      5.03324023	     23.64820757	     45.85811001	      0.00000000	      0.00000000
     18.71285714	     -3.56610661	     -3.16042058	      2.46724643	      1.13484224	      0.92181136	      0.40686272	      7.84465719	     -7.88918482	    -11.67432702	     51.45206108	     51.45206108	      1.97815994	     -6.65014482	    -17.69503042	     24.94879416	     -2.88181174	     -6.49269986	     27.55415028	     27.55415028	     10.43924391	    -14.39157549	      7.40040324	     -6.92756398	      5.32123842	      3.46086376	     18.85949990	    -15.08300111	    -10.92032125	     87.76917287	     44.82478239	      0.00000000	      0.00000000	     -7.60883594	     -5.61989423	      4.50765406	     24.84730983	     45.97770163	      0.00000000	      0.00000000
     18.72442857	     -3.49761903	     -3.15789962	      2.38441970	      1.13393231	      0.92310358	      0.40451213	     10.05736472	     -8.44467119	    -10.89379598	     55.44751064	     55.44751064	      2.76779026	     -6.46228253	     -9.46812677	     23.86139111	     -2.85223604	     -7.03248447	     26.82378362	     26.82378362	      9.89036834	    -13.99069715	      4.31958007	     -7.09687598	      5.41667932	      2.67646619	     17.95670611	    -14.33232457	    -10.68972114	     83.90326218	     44.97572594	      0.00000000	      0.00000000	     -6.73538805	     -5.55227938	      0.87735927	     27.23296692	     46.57857832	      0.00000000	      0.00000000
     18.73600000	     -3.49124733	     -3.12492065	      2.27434993	      1.13280460	      0.92439530	      0.40233138	     12.13423433	     -8.86691717	    -10.11636571	     58.57170861	     58.57170861	      1.68586911	     -7.85923913	     -7.45723056	     22.94696022	     -2.78634907	     -7.50572754	     26.31707762	     26.31707762	     10.25354085	    -13.32635792	      3.85087783	     -7.27248180	      5.49455119	      2.65980178	     16.19135480	    -14.39655896	    -10.42643810	     81.24842497	     45.05904552	      0.00000000	      0.00000000	     -4.87781075	     -5.57116152	     -0.20859231	     28.07790380	     46.75506123	      0.00000000	      0.00000000
